<svg width="211" height="236"
    xmlns="http://www.w3.org/2000/svg"
    xmlns:xlink="http://www.w3.org/1999/xlink" overflow="hidden">
    <defs>
        <clipPath id="clip0">
            <rect x="467" y="184" width="211" height="236"/>
        </clipPath>
        <clipPath id="clip1">
            <rect x="467" y="187" width="115" height="229"/>
        </clipPath>
        <clipPath id="clip2">
            <rect x="467" y="187" width="115" height="229"/>
        </clipPath>
        <clipPath id="clip3">
            <rect x="467" y="187" width="230" height="229"/>
        </clipPath>
        <clipPath id="clip4">
            <rect x="582" y="185" width="95" height="234"/>
        </clipPath>
        <clipPath id="clip5">
            <rect x="582" y="185" width="95" height="234"/>
        </clipPath>
        <clipPath id="clip6">
            <rect x="461" y="185" width="234" height="234"/>
        </clipPath>
    </defs>
    <g clip-path="url(#clip0)" transform="translate(-467 -184)">
        <g clip-path="url(#clip1)">
            <g clip-path="url(#clip2)">
                <g clip-path="url(#clip3)">
                    <path d="M114.5 0 15.3399 57.25 15.3399 171.75 114.5 229 213.66 171.75 213.66 57.25Z" fill="#82D2FF" transform="matrix(1.00437 0 0 1 467 187)"/>
                    <path d="M114.5 114.5 114.5 0 15.3399 57.25Z" fill="#08B7FC" transform="matrix(1.00437 0 0 1 467 187)"/>
                    <path d="M15.3399 57.25 15.3399 171.75 114.5 114.5Z" fill="#006DFF" transform="matrix(1.00437 0 0 1 467 187)"/>
                    <path d="M213.66 57.25 213.66 57.25 114.5 114.5 114.5 114.5 213.66 171.75 213.66 171.75Z" fill="#08B7FC" transform="matrix(1.00437 0 0 1 467 187)"/>
                    <path d="M114.5 114.5 15.3399 171.75 114.5 229Z" fill="#0050C0" transform="matrix(1.00437 0 0 1 467 187)"/>
                    <path d="M114.5 229 213.66 171.75 114.5 114.5Z" fill="#006DFF" transform="matrix(1.00437 0 0 1 467 187)"/>
                    <path d="M170.462 146.81 170.462 82.1904 114.5 49.8804 58.5377 82.1904 58.5377 146.81 114.5 179.12Z" fill="#82D2FF" transform="matrix(1.00437 0 0 1 467 187)"/>
                    <path d="M170.462 146.81 170.462 82.1904 114.5 49.8804 114.5 179.12Z" fill="#55CBFF" transform="matrix(1.00437 0 0 1 467 187)"/>
                </g>
            </g>
        </g>
        <g clip-path="url(#clip4)">
            <g clip-path="url(#clip5)">
                <g clip-path="url(#clip6)">
                    <path d="M149.084 71.8978 149.084 161.983 200.17 174.423 200.17 59.4578Z" fill="#F0303E" transform="matrix(1 0 0 1.00051 461.114 185)"/>
                    <path d="M158.227 81.041 200.17 59.4578 116.94 0 107.797 60.6898Z" fill="#FF515E" transform="matrix(1 0 0 1.00051 461.114 185)"/>
                    <path d="M107.797 173.191 116.94 233.881 200.17 174.423 158.227 152.84Z" fill="#FF515E" transform="matrix(1 0 0 1.00051 461.114 185)"/>
                    <path d="M116.94 51.5465 107.797 116.94 116.94 182.334 158.227 152.84 158.227 81.041Z" fill="#FF8891" transform="matrix(1 0 0 1.00051 461.114 185)"/>
                    <path d="M66.5103 71.8978 66.5103 161.983 116.94 182.334 116.94 51.5465Z" fill="#FFC9CC" transform="matrix(1 0 0 1.00051 461.114 185)"/>
                    <path d="M75.6536 152.84 52.345 151.2 33.7103 174.423 116.94 233.881 116.94 182.334Z" fill="#FF8891" transform="matrix(1 0 0 1.00051 461.114 185)"/>
                    <path d="M116.94 51.5465 116.94 0 33.7103 59.4578 52.345 83.2894 75.6536 81.041Z" fill="#FF8891" transform="matrix(1 0 0 1.00051 461.114 185)"/>
                    <path d="M75.6536 81.041 33.7103 59.4578 33.7103 174.423 75.6536 152.84Z" fill="#FF515E" transform="matrix(1 0 0 1.00051 461.114 185)"/>
                </g>
            </g>
        </g>
        <path d="M604.09 272.748C602.496 273.146 600.34 273.65 597.621 274.259 593.215 275.244 589.863 276.217 587.566 277.177 585.269 278.138 583.172 279.427 581.273 281.045 577.242 284.49 575.226 288.111 575.226 291.908 575.226 295.611 577.289 298.154 581.414 299.537 588.445 286.81 596.004 277.881 604.09 272.748ZM613.828 268.002C614.156 268.002 614.32 268.131 614.32 268.388 614.32 268.74 613.383 269.349 611.508 270.217 609.562 271.084 607.429 271.834 605.109 272.467 601.078 275.818 597.674 279.474 594.896 283.435 592.119 287.396 589.043 293.009 585.668 300.275L586.548 300.275C590.513 300.275 593.846 298.81 596.545 295.881 597.882 294.427 598.821 292.506 599.361 290.115 599.454 289.74 599.595 289.552 599.783 289.552 599.994 289.552 600.099 289.67 600.099 289.904 600.099 292.529 598.662 295.008 595.788 297.34 592.913 299.672 589.857 300.838 586.619 300.838 586.126 300.838 585.715 300.814 585.386 300.767 585.246 301.072 584.543 302.513 583.277 305.092 580.347 311.068 577.881 315.345 575.877 317.924 573.873 320.502 571.277 322.799 568.09 324.814 563.004 328.025 557.801 329.631 552.48 329.631 549.41 329.631 546.89 328.939 544.922 327.556 542.953 326.174 541.969 324.416 541.969 322.283 541.969 321.111 542.302 320.115 542.97 319.295 543.638 318.474 544.453 318.064 545.414 318.064 546.961 318.064 547.734 318.849 547.734 320.42 547.734 322.295 546.89 323.232 545.203 323.232 543.984 323.232 543.34 322.47 543.269 320.947 543.269 320.853 543.246 320.771 543.199 320.701 542.801 320.701 542.601 321.263 542.601 322.388 542.601 324.24 543.533 325.793 545.396 327.047 547.26 328.301 549.597 328.927 552.41 328.927 558.41 328.927 563.59 326.478 567.949 321.58 569.66 319.658 571.301 317.349 572.871 314.654 575.426 310.131 577.992 305.595 580.57 301.049L581.133 300.064C578.765 299.338 576.879 298.054 575.472 296.215 574.066 294.375 573.363 292.271 573.363 289.904 573.363 285.685 575.109 282.158 578.601 279.322 580.664 277.658 582.744 276.498 584.842 275.842 586.939 275.185 590.719 274.517 596.179 273.838 598.57 273.556 601.429 273.006 604.758 272.185 609.117 269.396 612.14 268.002 613.828 268.002Z" stroke="#FFFFFF" stroke-width="2" stroke-linejoin="round" stroke-miterlimit="10" stroke-dasharray="2 2" fill-rule="evenodd"/>
        <text fill="#000000" fill-opacity="0" font-family="Arial,Arial_MSFontService,sans-serif" font-size="61.6289" x="541.969" y="321.927">J</text>
    </g>
</svg>