<svg width="44" height="45" xmlns="http://www.w3.org/2000/svg" xmlns:xlink="http://www.w3.org/1999/xlink" overflow="hidden"><defs><clipPath id="clip0"><rect x="129" y="508" width="44" height="45"/></clipPath></defs><g clip-path="url(#clip0)" transform="translate(-129 -508)"><path d="M130.5 517.801 138.801 509.5 164.199 509.5 172.5 517.801 172.5 544.199 164.199 552.5 138.801 552.5 130.5 544.199Z" stroke="#BFBFBF" stroke-width="1.33333" stroke-miterlimit="8" fill="#F2F2F2" fill-rule="evenodd"/><path d="M132.5 520.699 139.699 513.5 163.301 513.5 170.5 520.699 170.5 541.301 163.301 548.5 139.699 548.5 132.5 541.301Z" stroke="#BFBFBF" stroke-width="1.33333" stroke-miterlimit="8" fill="#F2F2F2" fill-rule="evenodd"/><path d="M138.5 509.5 139.812 513.226" stroke="#BFBFBF" stroke-width="0.666667" stroke-miterlimit="8" fill="#F2F2F2" fill-rule="evenodd"/><path d="M130.5 517.5 132.73 520.308" stroke="#BFBFBF" stroke-width="0.666667" stroke-miterlimit="8" fill="#F2F2F2" fill-rule="evenodd"/><path d="M0 0 2.22982 2.79947" stroke="#BFBFBF" stroke-width="0.666667" stroke-miterlimit="8" fill="#F2F2F2" fill-rule="evenodd" transform="matrix(1 0 0 -1 130.5 544.299)"/><path d="M0 0 1.31213 3.71717" stroke="#BFBFBF" stroke-width="0.666667" stroke-miterlimit="8" fill="#F2F2F2" fill-rule="evenodd" transform="matrix(1 0 0 -1 138.5 552.217)"/><path d="M163.582 552.217 162.5 548.5" stroke="#BFBFBF" stroke-width="0.666667" stroke-miterlimit="8" fill="#F2F2F2" fill-rule="evenodd"/><path d="M172.5 544.299 170.5 541.5" stroke="#BFBFBF" stroke-width="0.666667" stroke-miterlimit="8" fill="#F2F2F2" fill-rule="evenodd"/><path d="M0 0 2 2.80798" stroke="#BFBFBF" stroke-width="0.666667" stroke-miterlimit="8" fill="#F2F2F2" fill-rule="evenodd" transform="matrix(-1 0 0 1 172.5 517.5)"/><path d="M0 0 1.08231 3.72567" stroke="#BFBFBF" stroke-width="0.666667" stroke-miterlimit="8" fill="#F2F2F2" fill-rule="evenodd" transform="matrix(-1 0 0 1 163.582 509.5)"/></g></svg>