<svg width="342" height="171" xmlns="http://www.w3.org/2000/svg" xmlns:xlink="http://www.w3.org/1999/xlink" overflow="hidden"><defs><clipPath id="clip0"><rect x="400" y="409" width="342" height="171"/></clipPath><clipPath id="clip1"><rect x="559" y="473" width="19" height="20"/></clipPath><clipPath id="clip2"><rect x="559" y="473" width="19" height="20"/></clipPath><clipPath id="clip3"><rect x="559" y="473" width="19" height="20"/></clipPath><clipPath id="clip4"><rect x="631" y="509" width="19" height="20"/></clipPath><clipPath id="clip5"><rect x="631" y="509" width="19" height="20"/></clipPath><clipPath id="clip6"><rect x="631" y="509" width="19" height="20"/></clipPath></defs><g clip-path="url(#clip0)" transform="translate(-400 -409)"><text fill="#F44336" font-family="Dubai,Dubai_MSFontService,sans-serif" font-weight="700" font-size="59" transform="translate(435.447 474)">Team Ruby<tspan font-size="59" x="71.1546" y="46">Wins</tspan><tspan font-size="59" x="198.575" y="46">!</tspan></text><g clip-path="url(#clip1)"><g clip-path="url(#clip2)"><g clip-path="url(#clip3)"><path d="M12.1113 5.84083 12.1113 13.1592 16.2614 14.1698 16.2614 4.83023Z" fill="#F0303E" transform="matrix(1 0 0 1.05263 559 473)"/><path d="M12.8541 6.58361 16.2614 4.83023 9.5 0 8.75722 4.93031Z" fill="#FF515E" transform="matrix(1 0 0 1.05263 559 473)"/><path d="M8.75722 14.0697 9.5 19 16.2614 14.1698 12.8541 12.4164Z" fill="#FF515E" transform="matrix(1 0 0 1.05263 559 473)"/><path d="M9.5 4.18753 8.75722 9.5 9.5 14.8125 12.8541 12.4164 12.8541 6.58361Z" fill="#FF8891" transform="matrix(1 0 0 1.05263 559 473)"/><path d="M5.40316 5.84083 5.40316 13.1592 9.5 14.8125 9.5 4.18753Z" fill="#FFC9CC" transform="matrix(1 0 0 1.05263 559 473)"/><path d="M6.14594 12.4164 4.2524 12.2832 2.73856 14.1698 9.5 19 9.5 14.8125Z" fill="#FF8891" transform="matrix(1 0 0 1.05263 559 473)"/><path d="M9.5 4.18753 9.5 0 2.73856 4.83023 4.2524 6.76626 6.14594 6.58361Z" fill="#FF8891" transform="matrix(1 0 0 1.05263 559 473)"/><path d="M6.14594 6.58361 2.73856 4.83023 2.73856 14.1698 6.14594 12.4164Z" fill="#FF515E" transform="matrix(1 0 0 1.05263 559 473)"/></g></g></g><g clip-path="url(#clip4)"><g clip-path="url(#clip5)"><g clip-path="url(#clip6)"><path d="M12.1113 5.84083 12.1113 13.1592 16.2614 14.1698 16.2614 4.83023Z" fill="#F0303E" transform="matrix(1 0 0 1.05263 631 509)"/><path d="M12.8541 6.58361 16.2614 4.83023 9.5 0 8.75722 4.93031Z" fill="#FF515E" transform="matrix(1 0 0 1.05263 631 509)"/><path d="M8.75722 14.0697 9.5 19 16.2614 14.1698 12.8541 12.4164Z" fill="#FF515E" transform="matrix(1 0 0 1.05263 631 509)"/><path d="M9.5 4.18753 8.75722 9.5 9.5 14.8125 12.8541 12.4164 12.8541 6.58361Z" fill="#FF8891" transform="matrix(1 0 0 1.05263 631 509)"/><path d="M5.40316 5.84083 5.40316 13.1592 9.5 14.8125 9.5 4.18753Z" fill="#FFC9CC" transform="matrix(1 0 0 1.05263 631 509)"/><path d="M6.14594 12.4164 4.2524 12.2832 2.73856 14.1698 9.5 19 9.5 14.8125Z" fill="#FF8891" transform="matrix(1 0 0 1.05263 631 509)"/><path d="M9.5 4.18753 9.5 0 2.73856 4.83023 4.2524 6.76626 6.14594 6.58361Z" fill="#FF8891" transform="matrix(1 0 0 1.05263 631 509)"/><path d="M6.14594 6.58361 2.73856 4.83023 2.73856 14.1698 6.14594 12.4164Z" fill="#FF515E" transform="matrix(1 0 0 1.05263 631 509)"/></g></g></g></g></svg>