<svg width="395" height="172" xmlns="http://www.w3.org/2000/svg" xmlns:xlink="http://www.w3.org/1999/xlink" overflow="hidden"><defs><clipPath id="clip0"><rect x="425" y="422" width="395" height="172"/></clipPath><clipPath id="clip1"><rect x="614" y="495" width="22" height="22"/></clipPath><clipPath id="clip2"><rect x="614" y="495" width="22" height="22"/></clipPath><clipPath id="clip3"><rect x="614" y="495" width="22" height="22"/></clipPath><clipPath id="clip4"><rect x="712" y="541" width="22" height="21"/></clipPath><clipPath id="clip5"><rect x="712" y="541" width="22" height="21"/></clipPath><clipPath id="clip6"><rect x="712" y="541" width="22" height="21"/></clipPath></defs><g clip-path="url(#clip0)" transform="translate(-425 -422)"><path d="M536.846 475.618C532.898 475.831 530.004 476.445 528.165 477.458 526.326 478.471 525.406 479.698 525.406 481.138 525.406 482.311 525.758 483.205 526.461 483.818 527.165 484.431 528.192 484.738 529.544 484.738 531.762 484.738 534.197 484.018 536.846 482.578ZM493.827 461.618C492.031 461.618 490.581 462.191 489.478 463.338 488.374 464.485 487.617 466.285 487.207 468.738L499.447 468.738 499.447 468.498C499.447 466.045 498.933 464.285 497.907 463.218 496.881 462.151 495.521 461.618 493.827 461.618ZM579.487 454.258C583.54 454.258 586.447 455.591 588.206 458.258 590.347 456.978 592.488 455.991 594.628 455.298 596.769 454.605 598.99 454.258 601.292 454.258 604.662 454.258 607.244 455.178 609.037 457.018 610.83 458.858 611.727 461.511 611.727 464.978L611.727 491.458 600.927 491.458 600.927 468.258C600.927 466.125 600.615 464.618 599.993 463.738 599.37 462.858 598.329 462.418 596.868 462.418 594.919 462.418 592.592 463.191 589.886 464.738L589.886 464.978 589.886 491.458 579.086 491.458 579.086 468.258C579.086 466.125 578.778 464.618 578.16 463.738 577.542 462.858 576.508 462.418 575.058 462.418 572.962 462.418 570.625 463.191 568.047 464.738L568.047 491.458 557.247 491.458 557.247 455.698 568.047 454.658 568.047 457.778C571.727 455.431 575.54 454.258 579.487 454.258ZM533.487 454.258C538.18 454.258 541.713 455.178 544.086 457.018 546.46 458.858 547.646 461.885 547.646 466.098L547.646 491.458 538.439 491.458 537.567 488.658C535.586 490.098 533.62 491.111 531.667 491.698 529.713 492.285 527.666 492.578 525.525 492.578 523.278 492.578 521.298 492.151 519.585 491.298 517.873 490.445 516.548 489.258 515.612 487.738 514.675 486.218 514.206 484.471 514.206 482.498 514.206 478.285 516.294 475.071 520.468 472.858 524.643 470.645 530.102 469.405 536.846 469.138L536.846 468.258C536.846 466.765 536.699 465.591 536.405 464.738 536.11 463.885 535.588 463.258 534.838 462.858 534.089 462.458 533.045 462.258 531.706 462.258 528.334 462.258 524.506 463.618 520.223 466.338L516.047 459.778C518.927 457.911 521.74 456.525 524.487 455.618 527.233 454.711 530.233 454.258 533.487 454.258ZM493.846 454.258C497.367 454.258 500.367 454.951 502.846 456.338 505.327 457.725 507.18 459.618 508.406 462.018 509.633 464.418 510.247 467.138 510.247 470.178 510.247 471.245 510.14 473.111 509.927 475.778L486.887 475.778C487.207 478.765 488.193 480.965 489.846 482.378 491.5 483.791 493.473 484.498 495.767 484.498 497.473 484.498 499.126 484.258 500.727 483.778 502.327 483.298 504.033 482.525 505.846 481.458L509.526 488.018C507.607 489.458 505.393 490.578 502.887 491.378 500.38 492.178 497.66 492.578 494.727 492.578 491.207 492.578 488.047 491.938 485.246 490.658 482.447 489.378 480.207 487.338 478.526 484.538 476.846 481.738 476.007 478.125 476.007 473.698 476.007 469.645 476.713 466.151 478.126 463.218 479.54 460.285 481.593 458.058 484.286 456.538 486.98 455.018 490.167 454.258 493.846 454.258ZM436.487 439.618 480.566 439.618 480.566 449.298 464.087 449.298 464.087 491.458 453.047 491.458 453.047 449.298 436.487 449.298Z" stroke="#F2F2F2" stroke-width="2" stroke-linejoin="round" stroke-miterlimit="10" fill="#F44336" fill-rule="evenodd"/><text fill="#000000" fill-opacity="0" font-family="Arial,Arial_MSFontService,sans-serif" font-size="52.96" x="436.487" y="485.958">Team</text><path d="M746.842 462.418C744.739 462.418 742.285 463.138 739.48 464.578L739.48 484.258C740.559 484.471 741.799 484.578 743.201 484.578 746.492 484.578 749.068 483.605 750.929 481.658 752.789 479.711 753.72 476.738 753.72 472.738 753.72 470.178 753.504 468.151 753.072 466.658 752.641 465.165 751.926 464.085 750.928 463.418 749.93 462.751 748.568 462.418 746.842 462.418ZM766.72 455.458 778.08 455.458 784.48 474.738C784.96 476.178 785.547 478.338 786.24 481.218 786.72 479.085 787.28 476.978 787.92 474.898L793.36 455.458 804.64 455.458 804.64 456.018 793.68 490.098C792.346 494.258 790.84 497.591 789.16 500.098 787.48 502.605 785.48 504.458 783.16 505.658 780.84 506.858 778.026 507.458 774.72 507.458 771.84 507.458 769.173 506.978 766.72 506.018L769.44 498.418C770.88 498.951 772.373 499.218 773.92 499.218 775.2 499.218 776.346 499.045 777.36 498.698 778.373 498.351 779.36 497.605 780.32 496.458 781.28 495.311 782.187 493.645 783.04 491.458L780.16 491.458 766.72 456.018ZM696.08 454.658 696.08 478.258C696.08 480.391 696.431 481.925 697.134 482.858 697.836 483.791 699.106 484.258 700.942 484.258 702.887 484.258 705.4 483.431 708.48 481.778L708.48 455.698 719.28 454.658 719.28 491.458 710.072 491.458 709.2 488.578C705.079 491.245 700.852 492.578 696.517 492.578 692.932 492.578 690.163 491.591 688.21 489.618 686.256 487.645 685.28 484.925 685.28 481.458L685.28 455.698ZM650.6 448.738 650.6 464.018 655.585 464.018C658.854 464.018 661.374 463.405 663.144 462.178 664.915 460.951 665.8 458.925 665.8 456.098 665.8 453.645 665.01 451.805 663.43 450.578 661.85 449.351 659.644 448.738 656.811 448.738ZM639.56 439.618 656.92 439.618C661.506 439.618 665.333 440.325 668.4 441.738 671.466 443.151 673.747 445.071 675.24 447.498 676.733 449.925 677.48 452.685 677.48 455.778 677.48 459.405 676.573 462.538 674.76 465.178 672.946 467.818 670.28 469.778 666.76 471.058L680.68 490.818 680.68 491.458 667.985 491.458 654.966 472.578 650.6 472.578 650.6 491.458 639.56 491.458ZM739.48 435.378 739.48 457.538C743.13 455.351 746.806 454.258 750.509 454.258 755.393 454.258 759.016 455.805 761.377 458.898 763.739 461.991 764.92 466.658 764.92 472.898 764.92 477.698 763.92 481.565 761.92 484.498 759.92 487.431 757.346 489.511 754.2 490.738 751.053 491.965 747.613 492.578 743.88 492.578 741.96 492.578 739.64 492.418 736.92 492.098 734.2 491.778 731.453 491.245 728.68 490.498L728.68 436.418Z" stroke="#F2F2F2" stroke-width="2" stroke-linejoin="round" stroke-miterlimit="10" fill="#F44336" fill-rule="evenodd"/><text fill="#000000" fill-opacity="0" font-family="Arial,Arial_MSFontService,sans-serif" font-size="72.08" x="639.56" y="498.448">Ruby</text><path d="M630.294 518.188 630.294 554.988 619.494 554.988 619.494 519.228ZM695.814 517.788C701.254 517.788 706.187 519.095 710.614 521.708L706.4 528.668C704.185 527.548 702.321 526.775 700.808 526.348 699.296 525.921 697.675 525.708 695.947 525.708 694.596 525.708 693.583 525.948 692.907 526.428 692.232 526.908 691.894 527.521 691.894 528.268 691.894 528.801 692.029 529.241 692.299 529.588 692.569 529.935 693.068 530.255 693.797 530.548 694.526 530.841 695.673 531.201 697.238 531.628L699.91 532.348C704.067 533.415 707.103 534.908 709.02 536.828 710.936 538.748 711.894 541.175 711.894 544.108 711.894 546.401 711.321 548.455 710.174 550.268 709.027 552.081 707.267 553.508 704.894 554.548 702.521 555.588 699.627 556.108 696.214 556.108 692.801 556.108 689.747 555.695 687.054 554.868 684.361 554.041 681.841 552.801 679.494 551.148L684.072 544.188C686.052 545.628 688.059 546.655 690.093 547.268 692.127 547.881 694.081 548.188 695.955 548.188 697.722 548.188 699.02 547.921 699.85 547.388 700.679 546.855 701.094 546.135 701.094 545.228 701.094 544.641 700.933 544.121 700.612 543.668 700.291 543.215 699.635 542.761 698.644 542.308 697.653 541.855 696.194 541.361 694.267 540.828L691.938 540.188C688.082 539.121 685.311 537.735 683.624 536.028 681.937 534.321 681.094 532.001 681.094 529.068 681.094 526.828 681.707 524.855 682.934 523.148 684.161 521.441 685.894 520.121 688.134 519.188 690.374 518.255 692.934 517.788 695.814 517.788ZM663.415 517.788C667.109 517.788 669.892 518.708 671.765 520.548 673.638 522.388 674.574 525.068 674.574 528.588L674.574 554.988 663.774 554.988 663.774 531.788C663.774 530.295 663.626 529.135 663.328 528.308 663.031 527.481 662.532 526.881 661.829 526.508 661.127 526.135 660.127 525.948 658.832 525.948 656.671 525.948 654.132 526.801 651.214 528.508L651.214 554.988 640.414 554.988 640.414 519.228 651.214 518.188 651.214 521.708C653.194 520.481 655.188 519.521 657.195 518.828 659.202 518.135 661.275 517.788 663.415 517.788ZM541.894 503.148 553.494 503.148 560.134 531.228C560.507 532.721 560.907 534.695 561.334 537.148 561.761 539.601 562.134 542.028 562.454 544.428 563.307 538.935 564.107 534.535 564.854 531.228L571.414 503.148 584.294 503.148 590.694 530.668C591.654 534.988 592.507 539.601 593.254 544.508 593.574 542.268 593.961 539.895 594.414 537.388 594.867 534.881 595.307 532.641 595.734 530.668L601.894 503.148 613.334 503.148 613.334 503.788 600.054 554.988 585.974 554.988 579.574 526.588C578.827 523.441 578.161 519.628 577.574 515.148 576.987 519.628 576.321 523.441 575.574 526.588L569.334 554.988 555.254 554.988 541.894 503.788ZM624.694 500.108C625.974 500.108 627.161 500.415 628.254 501.028 629.347 501.641 630.214 502.468 630.854 503.508 631.494 504.548 631.814 505.681 631.814 506.908 631.814 508.135 631.494 509.255 630.854 510.268 630.214 511.281 629.347 512.095 628.254 512.708 627.161 513.321 625.974 513.628 624.694 513.628 623.467 513.628 622.321 513.321 621.254 512.708 620.187 512.095 619.334 511.281 618.694 510.268 618.054 509.255 617.734 508.135 617.734 506.908 617.734 505.681 618.054 504.548 618.694 503.508 619.334 502.468 620.187 501.641 621.254 501.028 622.321 500.415 623.467 500.108 624.694 500.108Z" stroke="#F2F2F2" stroke-width="2" stroke-linejoin="round" stroke-miterlimit="10" fill="#F44336" fill-rule="evenodd"/><text fill="#000000" fill-opacity="0" font-family="Arial,Arial_MSFontService,sans-serif" font-size="56" x="541.894" y="549.108">Wins</text><path d="M723.367 543.308C724.487 543.308 725.541 543.601 726.527 544.188 727.514 544.775 728.314 545.548 728.927 546.508 729.541 547.468 729.847 548.508 729.847 549.628 729.847 550.801 729.554 551.868 728.967 552.828 728.381 553.788 727.581 554.561 726.567 555.148 725.554 555.735 724.487 556.028 723.367 556.028 722.194 556.028 721.114 555.735 720.127 555.148 719.141 554.561 718.354 553.788 717.767 552.828 717.181 551.868 716.887 550.801 716.887 549.628 716.887 548.508 717.181 547.468 717.767 546.508 718.354 545.548 719.141 544.775 720.127 544.188 721.114 543.601 722.194 543.308 723.367 543.308ZM717.367 503.148 729.447 503.148 727.527 537.948 719.207 538.668Z" stroke="#F2F2F2" stroke-width="2" stroke-linejoin="round" stroke-miterlimit="10" fill="#F44336" fill-rule="evenodd"/><text fill="#000000" fill-opacity="0" font-family="Arial,Arial_MSFontService,sans-serif" font-size="52.88" x="716.887" y="549.418">!</text><g clip-path="url(#clip1)"><g clip-path="url(#clip2)"><g clip-path="url(#clip3)"><path d="M628.024 501.763 628.024 510.237 632.829 511.407 632.829 500.593Z" fill="#F0303E"/><path d="M628.884 502.623 632.829 500.593 625 495 624.14 500.709Z" fill="#FF515E"/><path d="M624.14 511.291 625 517 632.829 511.407 628.884 509.377Z" fill="#FF515E"/><path d="M625 499.849 624.14 506 625 512.151 628.884 509.377 628.884 502.623Z" fill="#FF8891"/><path d="M620.256 501.763 620.256 510.237 625 512.151 625 499.849Z" fill="#FFC9CC"/><path d="M621.116 509.377 618.924 509.223 617.171 511.407 625 517 625 512.151Z" fill="#FF8891"/><path d="M625 499.849 625 495 617.171 500.593 618.924 502.835 621.116 502.623Z" fill="#FF8891"/><path d="M621.116 502.623 617.171 500.593 617.171 511.407 621.116 509.377Z" fill="#FF515E"/></g></g></g><g clip-path="url(#clip4)"><g clip-path="url(#clip5)"><g clip-path="url(#clip6)"><path d="M13.3861 6.45565 13.3861 14.5443 17.9732 15.6613 17.9732 5.33868Z" fill="#F0303E" transform="matrix(1.04762 0 0 1 712 541)"/><path d="M14.2071 7.27662 17.9732 5.33868 10.5 0 9.67903 5.44929Z" fill="#FF515E" transform="matrix(1.04762 0 0 1 712 541)"/><path d="M9.67903 15.5507 10.5 21 17.9732 15.6613 14.2071 13.7234Z" fill="#FF515E" transform="matrix(1.04762 0 0 1 712 541)"/><path d="M10.5 4.62833 9.67903 10.5 10.5 16.3717 14.2071 13.7234 14.2071 7.27662Z" fill="#FF8891" transform="matrix(1.04762 0 0 1 712 541)"/><path d="M5.97192 6.45565 5.97192 14.5443 10.5 16.3717 10.5 4.62833Z" fill="#FFC9CC" transform="matrix(1.04762 0 0 1 712 541)"/><path d="M6.79288 13.7234 4.70002 13.5762 3.02683 15.6613 10.5 21 10.5 16.3717Z" fill="#FF8891" transform="matrix(1.04762 0 0 1 712 541)"/><path d="M10.5 4.62833 10.5 0 3.02683 5.33868 4.70002 7.4785 6.79288 7.27662Z" fill="#FF8891" transform="matrix(1.04762 0 0 1 712 541)"/><path d="M6.79288 7.27662 3.02683 5.33868 3.02683 15.6613 6.79288 13.7234Z" fill="#FF515E" transform="matrix(1.04762 0 0 1 712 541)"/></g></g></g></g></svg>