<svg width="524" height="171" xmlns="http://www.w3.org/2000/svg" xmlns:xlink="http://www.w3.org/1999/xlink" overflow="hidden"><defs><clipPath id="clip0"><rect x="389" y="170" width="524" height="171"/></clipPath><clipPath id="clip1"><rect x="600" y="245" width="20" height="21"/></clipPath><clipPath id="clip2"><rect x="600" y="245" width="20" height="21"/></clipPath><clipPath id="clip3"><rect x="600" y="245" width="20" height="21"/></clipPath><clipPath id="clip4"><rect x="813" y="180" width="20" height="21"/></clipPath><clipPath id="clip5"><rect x="813" y="180" width="20" height="21"/></clipPath><clipPath id="clip6"><rect x="813" y="180" width="20" height="21"/></clipPath><clipPath id="clip7"><rect x="698" y="290" width="19" height="21"/></clipPath><clipPath id="clip8"><rect x="698" y="290" width="19" height="21"/></clipPath><clipPath id="clip9"><rect x="698" y="290" width="19" height="21"/></clipPath></defs><g clip-path="url(#clip0)" transform="translate(-389 -170)"><path d="M667.61 223.599C663.662 223.812 660.768 224.425 658.929 225.439 657.09 226.452 656.17 227.679 656.17 229.119 656.17 230.292 656.522 231.185 657.225 231.799 657.929 232.412 658.956 232.719 660.308 232.719 662.526 232.719 664.96 231.999 667.61 230.559ZM500.61 223.599C496.662 223.812 493.768 224.425 491.929 225.439 490.09 226.452 489.17 227.679 489.17 229.119 489.17 230.292 489.522 231.185 490.225 231.799 490.929 232.412 491.956 232.719 493.308 232.719 495.526 232.719 497.96 231.999 500.61 230.559ZM748.97 210.399C746.825 210.399 744.439 211.145 741.81 212.639L741.81 232.239C743.312 232.505 744.733 232.639 746.074 232.639 749.238 232.639 751.692 231.639 753.435 229.639 755.179 227.639 756.05 224.639 756.05 220.639 756.05 218.025 755.822 215.985 755.367 214.519 754.911 213.052 754.173 211.999 753.154 211.359 752.135 210.719 750.74 210.399 748.97 210.399ZM704.97 210.399C702.825 210.399 700.439 211.145 697.81 212.639L697.81 232.239C699.312 232.505 700.733 232.639 702.074 232.639 705.238 232.639 707.692 231.639 709.435 229.639 711.179 227.639 712.05 224.639 712.05 220.639 712.05 218.025 711.822 215.985 711.367 214.519 710.911 213.052 710.173 211.999 709.154 211.359 708.135 210.719 706.74 210.399 704.97 210.399ZM883.59 209.599C881.794 209.599 880.345 210.172 879.242 211.319 878.138 212.465 877.381 214.265 876.97 216.719L889.21 216.719 889.21 216.479C889.21 214.025 888.697 212.265 887.671 211.199 886.645 210.132 885.284 209.599 883.59 209.599ZM457.59 209.599C455.794 209.599 454.345 210.172 453.242 211.319 452.138 212.465 451.381 214.265 450.97 216.719L463.21 216.719 463.21 216.479C463.21 214.025 462.697 212.265 461.671 211.199 460.645 210.132 459.284 209.599 457.59 209.599ZM828.89 202.639 828.89 239.439 818.09 239.439 818.09 203.679ZM883.61 202.239C887.13 202.239 890.13 202.932 892.61 204.319 895.09 205.705 896.944 207.599 898.17 209.999 899.397 212.399 900.01 215.119 900.01 218.159 900.01 219.225 899.904 221.092 899.69 223.759L876.65 223.759C876.97 226.745 877.957 228.945 879.61 230.359 881.264 231.772 883.237 232.479 885.53 232.479 887.237 232.479 888.89 232.239 890.49 231.759 892.09 231.279 893.797 230.505 895.61 229.439L899.29 235.999C897.37 237.439 895.157 238.559 892.65 239.359 890.144 240.159 887.424 240.559 884.49 240.559 880.97 240.559 877.81 239.919 875.01 238.639 872.21 237.359 869.97 235.319 868.29 232.519 866.61 229.719 865.77 226.105 865.77 221.679 865.77 217.625 866.477 214.132 867.89 211.199 869.304 208.265 871.357 206.039 874.05 204.519 876.744 202.999 879.93 202.239 883.61 202.239ZM859.787 202.239C861.342 202.239 862.789 202.479 864.13 202.959L862.522 213.919C861.663 213.599 860.885 213.359 860.188 213.199 859.491 213.039 858.687 212.959 857.775 212.959 856.38 212.959 855.026 213.292 853.712 213.959 852.398 214.625 851.098 215.812 849.81 217.519L849.81 239.439 839.01 239.439 839.01 203.679 849.81 202.639 849.81 207.679C852.492 204.052 855.817 202.239 859.787 202.239ZM752.724 202.239C757.647 202.239 761.298 203.785 763.679 206.879 766.06 209.972 767.25 214.559 767.25 220.639 767.25 225.332 766.314 229.159 764.442 232.119 762.569 235.079 760.175 237.225 757.259 238.559 754.343 239.892 751.227 240.559 747.909 240.559 745.93 240.559 743.897 240.265 741.81 239.679L741.81 254.319 731.01 254.319 731.01 203.679 741.81 202.639 741.81 205.599C745.502 203.359 749.14 202.239 752.724 202.239ZM708.724 202.239C713.647 202.239 717.298 203.785 719.679 206.879 722.06 209.972 723.25 214.559 723.25 220.639 723.25 225.332 722.314 229.159 720.442 232.119 718.569 235.079 716.175 237.225 713.259 238.559 710.343 239.892 707.227 240.559 703.909 240.559 701.93 240.559 699.897 240.265 697.81 239.679L697.81 254.319 687.01 254.319 687.01 203.679 697.81 202.639 697.81 205.599C701.502 203.359 705.14 202.239 708.724 202.239ZM664.25 202.239C668.944 202.239 672.477 203.159 674.85 204.999 677.224 206.839 678.41 209.865 678.41 214.079L678.41 239.439 669.203 239.439 668.33 236.639C666.35 238.079 664.384 239.092 662.43 239.679 660.477 240.265 658.43 240.559 656.289 240.559 654.042 240.559 652.062 240.132 650.349 239.279 648.637 238.425 647.312 237.239 646.375 235.719 645.439 234.199 644.97 232.452 644.97 230.479 644.97 226.265 647.058 223.052 651.232 220.839 655.407 218.625 660.866 217.385 667.61 217.119L667.61 216.239C667.61 214.745 667.463 213.572 667.168 212.719 666.874 211.865 666.352 211.239 665.602 210.839 664.853 210.439 663.809 210.239 662.47 210.239 659.098 210.239 655.27 211.599 650.987 214.319L646.81 207.759C649.69 205.892 652.504 204.505 655.25 203.599 657.997 202.692 660.997 202.239 664.25 202.239ZM543.25 202.239C547.304 202.239 550.21 203.572 551.97 206.239 554.111 204.959 556.252 203.972 558.392 203.279 560.533 202.585 562.754 202.239 565.055 202.239 568.426 202.239 571.008 203.159 572.801 204.999 574.594 206.839 575.49 209.492 575.49 212.959L575.49 239.439 564.69 239.439 564.69 216.239C564.69 214.105 564.379 212.599 563.757 211.719 563.134 210.839 562.092 210.399 560.632 210.399 558.683 210.399 556.356 211.172 553.65 212.719L553.65 212.959 553.65 239.439 542.85 239.439 542.85 216.239C542.85 214.105 542.541 212.599 541.923 211.719 541.305 210.839 540.272 210.399 538.822 210.399 536.726 210.399 534.389 211.172 531.81 212.719L531.81 239.439 521.01 239.439 521.01 203.679 531.81 202.639 531.81 205.759C535.49 203.412 539.304 202.239 543.25 202.239ZM497.25 202.239C501.944 202.239 505.477 203.159 507.85 204.999 510.224 206.839 511.41 209.865 511.41 214.079L511.41 239.439 502.203 239.439 501.33 236.639C499.35 238.079 497.384 239.092 495.43 239.679 493.477 240.265 491.43 240.559 489.289 240.559 487.042 240.559 485.062 240.132 483.349 239.279 481.637 238.425 480.312 237.239 479.375 235.719 478.439 234.199 477.97 232.452 477.97 230.479 477.97 226.265 480.058 223.052 484.232 220.839 488.407 218.625 493.866 217.385 500.61 217.119L500.61 216.239C500.61 214.745 500.463 213.572 500.168 212.719 499.874 211.865 499.352 211.239 498.602 210.839 497.853 210.439 496.809 210.239 495.47 210.239 492.098 210.239 488.27 211.599 483.987 214.319L479.81 207.759C482.69 205.892 485.504 204.505 488.25 203.599 490.997 202.692 493.997 202.239 497.25 202.239ZM457.61 202.239C461.13 202.239 464.13 202.932 466.61 204.319 469.09 205.705 470.944 207.599 472.17 209.999 473.397 212.399 474.01 215.119 474.01 218.159 474.01 219.225 473.904 221.092 473.69 223.759L450.65 223.759C450.97 226.745 451.957 228.945 453.61 230.359 455.264 231.772 457.237 232.479 459.53 232.479 461.237 232.479 462.89 232.239 464.49 231.759 466.09 231.279 467.797 230.505 469.61 229.439L473.29 235.999C471.37 237.439 469.157 238.559 466.65 239.359 464.144 240.159 461.424 240.559 458.49 240.559 454.97 240.559 451.81 239.919 449.01 238.639 446.21 237.359 443.97 235.319 442.29 232.519 440.61 229.719 439.77 226.105 439.77 221.679 439.77 217.625 440.477 214.132 441.89 211.199 443.304 208.265 445.357 206.039 448.05 204.519 450.744 202.999 453.93 202.239 457.61 202.239ZM400.25 187.599 444.33 187.599 444.33 197.279 427.85 197.279 427.85 239.439 416.81 239.439 416.81 197.279 400.25 197.279ZM620.49 186.479C623.477 186.479 626.557 186.972 629.73 187.959 632.904 188.945 635.93 190.399 638.81 192.319L633.642 200.159C631.097 198.612 628.845 197.492 626.883 196.799 624.922 196.105 622.802 195.759 620.523 195.759 617.979 195.759 616.057 196.185 614.758 197.039 613.46 197.892 612.81 199.039 612.81 200.479 612.81 201.385 613.075 202.199 613.605 202.919 614.135 203.639 615.09 204.359 616.468 205.079 617.847 205.799 619.835 206.639 622.433 207.599L624.183 208.239C627.576 209.519 630.32 210.719 632.414 211.839 634.508 212.959 636.271 214.559 637.703 216.639 639.134 218.719 639.85 221.412 639.85 224.719 639.85 228.185 638.944 231.105 637.13 233.479 635.317 235.852 632.85 237.625 629.73 238.799 626.61 239.972 623.077 240.559 619.13 240.559 611.13 240.559 604.33 238.479 598.73 234.319L603.85 226.399C608.81 229.545 613.664 231.119 618.41 231.119 621.45 231.119 623.837 230.639 625.57 229.679 627.304 228.719 628.17 227.279 628.17 225.359 628.17 224.185 627.89 223.212 627.33 222.439 626.77 221.665 625.784 220.919 624.37 220.199 622.957 219.479 620.837 218.559 618.01 217.439L616.17 216.719C612.757 215.385 610.01 214.105 607.93 212.879 605.85 211.652 604.197 210.079 602.97 208.159 601.744 206.239 601.13 203.812 601.13 200.879 601.13 197.625 602.064 194.919 603.93 192.759 605.797 190.599 608.197 189.012 611.13 187.999 614.064 186.985 617.184 186.479 620.49 186.479ZM823.29 184.559C824.57 184.559 825.757 184.865 826.85 185.479 827.944 186.092 828.81 186.919 829.45 187.959 830.09 188.999 830.41 190.132 830.41 191.359 830.41 192.585 830.09 193.705 829.45 194.719 828.81 195.732 827.944 196.545 826.85 197.159 825.757 197.772 824.57 198.079 823.29 198.079 822.064 198.079 820.917 197.772 819.85 197.159 818.784 196.545 817.93 195.732 817.29 194.719 816.65 193.705 816.33 192.585 816.33 191.359 816.33 190.132 816.65 188.999 817.29 187.959 817.93 186.919 818.784 186.092 819.85 185.479 820.917 184.865 822.064 184.559 823.29 184.559ZM785.81 183.359 785.81 205.679C789.556 203.385 793.597 202.239 797.932 202.239 801.625 202.239 804.408 203.145 806.281 204.959 808.154 206.772 809.09 209.439 809.09 212.959L809.09 239.439 798.29 239.439 798.29 216.239C798.29 214.745 798.142 213.585 797.845 212.759 797.548 211.932 797.048 211.332 796.345 210.959 795.643 210.585 794.643 210.399 793.347 210.399 791.024 210.399 788.512 211.172 785.81 212.719L785.81 239.439 775.01 239.439 775.01 184.399Z" stroke="#F2F2F2" stroke-width="2" stroke-linejoin="round" stroke-miterlimit="10" fill="#03A9F4" fill-rule="evenodd"/><text fill="#000000" fill-opacity="0" font-family="Arial,Arial_MSFontService,sans-serif" font-size="70.96" x="400.25" y="245.449">Team Sapphire</text><path d="M615.87 267.458 615.87 304.258 605.07 304.258 605.07 268.498ZM681.39 267.058C686.83 267.058 691.763 268.364 696.19 270.978L691.976 277.938C689.761 276.818 687.897 276.044 686.384 275.618 684.871 275.191 683.25 274.978 681.522 274.978 680.171 274.978 679.158 275.218 678.483 275.698 677.807 276.178 677.469 276.791 677.469 277.538 677.469 278.071 677.604 278.511 677.875 278.858 678.145 279.204 678.644 279.524 679.373 279.818 680.101 280.111 681.248 280.471 682.813 280.898L685.486 281.618C689.642 282.684 692.679 284.178 694.595 286.098 696.511 288.018 697.469 290.444 697.469 293.378 697.469 295.671 696.896 297.724 695.75 299.538 694.603 301.351 692.843 302.778 690.469 303.818 688.096 304.858 685.203 305.378 681.79 305.378 678.376 305.378 675.323 304.964 672.63 304.138 669.936 303.311 667.416 302.071 665.07 300.418L669.647 293.458C671.627 294.898 673.634 295.924 675.668 296.538 677.702 297.151 679.657 297.458 681.531 297.458 683.297 297.458 684.596 297.191 685.425 296.658 686.255 296.124 686.669 295.404 686.669 294.498 686.669 293.911 686.509 293.391 686.188 292.938 685.866 292.484 685.21 292.031 684.219 291.578 683.229 291.124 681.77 290.631 679.842 290.098L677.513 289.458C673.657 288.391 670.886 287.004 669.2 285.298 667.513 283.591 666.669 281.271 666.669 278.338 666.669 276.098 667.283 274.124 668.51 272.418 669.736 270.711 671.469 269.391 673.71 268.458 675.95 267.524 678.51 267.058 681.39 267.058ZM648.991 267.058C652.684 267.058 655.467 267.978 657.34 269.818 659.213 271.658 660.15 274.338 660.15 277.858L660.15 304.258 649.349 304.258 649.349 281.058C649.349 279.564 649.201 278.404 648.904 277.578 648.607 276.751 648.107 276.151 647.405 275.778 646.702 275.404 645.703 275.218 644.407 275.218 642.246 275.218 639.707 276.071 636.789 277.778L636.789 304.258 625.99 304.258 625.99 268.498 636.789 267.458 636.789 270.978C638.77 269.751 640.763 268.791 642.77 268.098 644.777 267.404 646.851 267.058 648.991 267.058ZM527.47 252.418 539.07 252.418 545.71 280.498C546.083 281.991 546.483 283.964 546.91 286.418 547.336 288.871 547.71 291.298 548.03 293.698 548.883 288.204 549.683 283.804 550.43 280.498L556.99 252.418 569.87 252.418 576.27 279.938C577.229 284.258 578.083 288.871 578.83 293.778 579.15 291.538 579.536 289.164 579.99 286.658 580.443 284.151 580.883 281.911 581.31 279.938L587.469 252.418 598.91 252.418 598.91 253.058 585.63 304.258 571.549 304.258 565.15 275.858C564.403 272.711 563.736 268.898 563.15 264.418 562.563 268.898 561.896 272.711 561.15 275.858L554.91 304.258 540.83 304.258 527.47 253.058ZM610.27 249.378C611.549 249.378 612.736 249.684 613.83 250.298 614.923 250.911 615.789 251.738 616.43 252.778 617.07 253.818 617.39 254.951 617.39 256.178 617.39 257.404 617.07 258.524 616.43 259.538 615.789 260.551 614.923 261.364 613.83 261.978 612.736 262.591 611.549 262.898 610.27 262.898 609.043 262.898 607.896 262.591 606.83 261.978 605.763 261.364 604.91 260.551 604.27 259.538 603.63 258.524 603.31 257.404 603.31 256.178 603.31 254.951 603.63 253.818 604.27 252.778 604.91 251.738 605.763 250.911 606.83 250.298 607.896 249.684 609.043 249.378 610.27 249.378Z" stroke="#F2F2F2" stroke-width="2" stroke-linejoin="round" stroke-miterlimit="10" fill="#03A9F4" fill-rule="evenodd"/><text fill="#000000" fill-opacity="0" font-family="Arial,Arial_MSFontService,sans-serif" font-size="56" x="527.47" y="298.378">Wins</text><path d="M707.231 293.746C708.239 293.746 709.187 294.01 710.075 294.538 710.963 295.066 711.683 295.762 712.235 296.626 712.787 297.49 713.063 298.426 713.063 299.434 713.063 300.49 712.799 301.45 712.271 302.314 711.743 303.178 711.023 303.874 710.111 304.402 709.199 304.93 708.239 305.194 707.231 305.194 706.175 305.194 705.203 304.93 704.315 304.402 703.427 303.874 702.719 303.178 702.191 302.314 701.663 301.45 701.399 300.49 701.399 299.434 701.399 298.426 701.663 297.49 702.191 296.626 702.719 295.762 703.427 295.066 704.315 294.538 705.203 294.01 706.175 293.746 707.231 293.746ZM701.831 257.602 712.703 257.602 710.975 288.922 703.487 289.57Z" stroke="#F2F2F2" stroke-linejoin="round" stroke-miterlimit="10" fill="#03A9F4" fill-rule="evenodd"/><text fill="#000000" fill-opacity="0" font-family="Arial,Arial_MSFontService,sans-serif" font-size="47.592" x="701.399" y="299.245">!</text><g clip-path="url(#clip1)"><g clip-path="url(#clip2)"><g clip-path="url(#clip3)"><path d="M10 0 1.33973 5 1.33973 15 10 20 18.6603 15 18.6603 5Z" fill="#82D2FF" transform="matrix(1 0 0 1.05 600 245)"/><path d="M10 10 10 0 1.33973 5Z" fill="#08B7FC" transform="matrix(1 0 0 1.05 600 245)"/><path d="M1.33973 5 1.33973 15 10 10Z" fill="#006DFF" transform="matrix(1 0 0 1.05 600 245)"/><path d="M18.6603 5 18.6603 5 10 10 10 10 18.6603 15 18.6603 15Z" fill="#08B7FC" transform="matrix(1 0 0 1.05 600 245)"/><path d="M10 10 1.33973 15 10 20Z" fill="#0050C0" transform="matrix(1 0 0 1.05 600 245)"/><path d="M10 20 18.6603 15 10 10Z" fill="#006DFF" transform="matrix(1 0 0 1.05 600 245)"/><path d="M14.8875 12.8218 14.8875 7.1782 10 4.35637 5.11246 7.1782 5.11246 12.8218 10 15.6436Z" fill="#82D2FF" transform="matrix(1 0 0 1.05 600 245)"/><path d="M14.8875 12.8218 14.8875 7.1782 10 4.35637 10 15.6436Z" fill="#55CBFF" transform="matrix(1 0 0 1.05 600 245)"/></g></g></g><g clip-path="url(#clip4)"><g clip-path="url(#clip5)"><g clip-path="url(#clip6)"><path d="M10 0 1.33973 5 1.33973 15 10 20 18.6603 15 18.6603 5Z" fill="#82D2FF" transform="matrix(1 0 0 1.05 813 180)"/><path d="M10 10 10 0 1.33973 5Z" fill="#08B7FC" transform="matrix(1 0 0 1.05 813 180)"/><path d="M1.33973 5 1.33973 15 10 10Z" fill="#006DFF" transform="matrix(1 0 0 1.05 813 180)"/><path d="M18.6603 5 18.6603 5 10 10 10 10 18.6603 15 18.6603 15Z" fill="#08B7FC" transform="matrix(1 0 0 1.05 813 180)"/><path d="M10 10 1.33973 15 10 20Z" fill="#0050C0" transform="matrix(1 0 0 1.05 813 180)"/><path d="M10 20 18.6603 15 10 10Z" fill="#006DFF" transform="matrix(1 0 0 1.05 813 180)"/><path d="M14.8875 12.8218 14.8875 7.1782 10 4.35637 5.11246 7.1782 5.11246 12.8218 10 15.6436Z" fill="#82D2FF" transform="matrix(1 0 0 1.05 813 180)"/><path d="M14.8875 12.8218 14.8875 7.1782 10 4.35637 10 15.6436Z" fill="#55CBFF" transform="matrix(1 0 0 1.05 813 180)"/></g></g></g><g clip-path="url(#clip7)"><g clip-path="url(#clip8)"><g clip-path="url(#clip9)"><path d="M9.5 0 1.27274 4.75 1.27274 14.25 9.5 19 17.7273 14.25 17.7273 4.75Z" fill="#82D2FF" transform="matrix(1 0 0 1.10526 698 290)"/><path d="M9.5 9.5 9.5 0 1.27274 4.75Z" fill="#08B7FC" transform="matrix(1 0 0 1.10526 698 290)"/><path d="M1.27274 4.75 1.27274 14.25 9.5 9.5Z" fill="#006DFF" transform="matrix(1 0 0 1.10526 698 290)"/><path d="M17.7273 4.75 17.7273 4.75 9.5 9.5 9.5 9.5 17.7273 14.25 17.7273 14.25Z" fill="#08B7FC" transform="matrix(1 0 0 1.10526 698 290)"/><path d="M9.5 9.5 1.27274 14.25 9.5 19Z" fill="#0050C0" transform="matrix(1 0 0 1.10526 698 290)"/><path d="M9.5 19 17.7273 14.25 9.5 9.5Z" fill="#006DFF" transform="matrix(1 0 0 1.10526 698 290)"/><path d="M14.1432 12.1807 14.1432 6.81929 9.5 4.13855 4.85684 6.81929 4.85684 12.1807 9.5 14.8615Z" fill="#82D2FF" transform="matrix(1 0 0 1.10526 698 290)"/><path d="M14.1432 12.1807 14.1432 6.81929 9.5 4.13855 9.5 14.8615Z" fill="#55CBFF" transform="matrix(1 0 0 1.10526 698 290)"/></g></g></g></g></svg>