<svg width="441" height="174" xmlns="http://www.w3.org/2000/svg" xmlns:xlink="http://www.w3.org/1999/xlink" overflow="hidden"><defs><clipPath id="clip0"><rect x="363" y="238" width="441" height="174"/></clipPath><clipPath id="clip1"><rect x="555" y="308" width="16" height="16"/></clipPath><clipPath id="clip2"><rect x="555" y="308" width="16" height="16"/></clipPath><clipPath id="clip3"><rect x="555" y="308" width="16" height="16"/></clipPath><clipPath id="clip4"><rect x="702" y="260" width="16" height="16"/></clipPath><clipPath id="clip5"><rect x="702" y="260" width="16" height="16"/></clipPath><clipPath id="clip6"><rect x="702" y="260" width="16" height="16"/></clipPath><clipPath id="clip7"><rect x="628" y="342" width="16" height="16"/></clipPath><clipPath id="clip8"><rect x="628" y="342" width="16" height="16"/></clipPath><clipPath id="clip9"><rect x="628" y="342" width="16" height="16"/></clipPath></defs><g clip-path="url(#clip0)" transform="translate(-363 -238)"><text fill="#03A9F4" font-family="Dubai,Dubai_MSFontService,sans-serif" font-weight="700" font-size="59" transform="translate(399.21 304)">Team Sapphire<tspan font-size="59" x="102.19" y="49">Wins!</tspan></text><g clip-path="url(#clip1)"><g clip-path="url(#clip2)"><g clip-path="url(#clip3)"><path d="M563 308 556.072 312 556.072 320 563 324 569.928 320 569.928 312Z" fill="#82D2FF"/><path d="M563 316 563 308 556.072 312Z" fill="#08B7FC"/><path d="M556.072 312 556.072 320 563 316Z" fill="#006DFF"/><path d="M569.928 312 569.928 312 563 316 563 316 569.928 320 569.928 320Z" fill="#08B7FC"/><path d="M563 316 556.072 320 563 324Z" fill="#0050C0"/><path d="M563 324 569.928 320 563 316Z" fill="#006DFF"/><path d="M566.91 318.257 566.91 313.743 563 311.485 559.09 313.743 559.09 318.257 563 320.515Z" fill="#82D2FF"/><path d="M566.91 318.257 566.91 313.743 563 311.485 563 320.515Z" fill="#55CBFF"/></g></g></g><g clip-path="url(#clip4)"><g clip-path="url(#clip5)"><g clip-path="url(#clip6)"><path d="M710 260 703.072 264 703.072 272 710 276 716.928 272 716.928 264Z" fill="#82D2FF"/><path d="M710 268 710 260 703.072 264Z" fill="#08B7FC"/><path d="M703.072 264 703.072 272 710 268Z" fill="#006DFF"/><path d="M716.928 264 716.928 264 710 268 710 268 716.928 272 716.928 272Z" fill="#08B7FC"/><path d="M710 268 703.072 272 710 276Z" fill="#0050C0"/><path d="M710 276 716.928 272 710 268Z" fill="#006DFF"/><path d="M713.91 270.257 713.91 265.743 710 263.485 706.09 265.743 706.09 270.257 710 272.515Z" fill="#82D2FF"/><path d="M713.91 270.257 713.91 265.743 710 263.485 710 272.515Z" fill="#55CBFF"/></g></g></g><g clip-path="url(#clip7)"><g clip-path="url(#clip8)"><g clip-path="url(#clip9)"><path d="M636 342 629.072 346 629.072 354 636 358 642.928 354 642.928 346Z" fill="#82D2FF"/><path d="M636 350 636 342 629.072 346Z" fill="#08B7FC"/><path d="M629.072 346 629.072 354 636 350Z" fill="#006DFF"/><path d="M642.928 346 642.928 346 636 350 636 350 642.928 354 642.928 354Z" fill="#08B7FC"/><path d="M636 350 629.072 354 636 358Z" fill="#0050C0"/><path d="M636 358 642.928 354 636 350Z" fill="#006DFF"/><path d="M639.91 352.257 639.91 347.743 636 345.485 632.09 347.743 632.09 352.257 636 354.515Z" fill="#82D2FF"/><path d="M639.91 352.257 639.91 347.743 636 345.485 636 354.515Z" fill="#55CBFF"/></g></g></g></g></svg>